<svg   width="48px"   height="48px"  viewBox="0 0 16 16" version="1.1" xmlns="http://www.w3.org/2000/svg" xmlns:xlink="http://www.w3.org/1999/xlink">
    <title>icon/search</title>
    <g id="icon/search" stroke="none" stroke-width="1" fill="none" fill-rule="evenodd">
        <g id="download-74" transform="translate(1.000000, 1.000000)" fill="#888888" fill-rule="nonzero">
            <path d="M14,12 L11.119,9.119 C11.674,8.209 12,7.144 12,6 C12,2.6862915 9.3137085,-8.8817842e-16 6,-8.8817842e-16 C2.6862915,-8.8817842e-16 -8.8817842e-16,2.6862915 -8.8817842e-16,6 C-8.8817842e-16,9.3137085 2.6862915,12 6,12 C7.10102924,11.999666 8.18050541,11.6947546 9.119,11.119 L12,14 L14,12 Z M2,6 C2,3.790861 3.790861,2 6,2 C8.209139,2 10,3.790861 10,6 C10,8.209139 8.209139,10 6,10 C3.790861,10 2,8.209139 2,6 Z" id="形状"></path>
        </g>
    </g>
</svg>